<svg xmlns="http://www.w3.org/2000/svg" width="600" height="338" viewBox="0 0 600 338" role="img" aria-label="Banli Hero 05 preview">
  <defs>
    <linearGradient id="bg" x1="0" x2="1" y1="0" y2="1">
      <stop offset="0" stop-color="#101735"/>
      <stop offset=".56" stop-color="#1b255d"/>
      <stop offset="1" stop-color="#0b102f"/>
    </linearGradient>
    <linearGradient id="accent" x1="0" x2="1">
      <stop offset="0" stop-color="#7a55ff"/>
      <stop offset="1" stop-color="#23d0ff"/>
    </linearGradient>
  </defs>
  <rect width="600" height="338" rx="18" fill="url(#bg)"/>
  <path d="M-30 78 C110 122 190 22 330 78 S500 136 642 74" fill="none" stroke="#ffffff" stroke-opacity=".12" stroke-width="2"/>
  <path d="M-30 112 C110 156 190 56 330 112 S500 170 642 108" fill="none" stroke="#20d5ff" stroke-opacity=".16" stroke-width="3"/>
  <text x="54" y="84" fill="#a38cff" font-family="Inter,Arial,sans-serif" font-size="18" font-weight="800">COUNTDOWN</text>
  <text x="54" y="142" fill="#f7f8ff" font-family="Inter,Arial,sans-serif" font-size="46" font-weight="900">Future Now</text>
  <text x="54" y="190" fill="#cdd3e8" font-family="Inter,Arial,sans-serif" font-size="18" font-weight="700">Video background with right timer</text>
  <rect x="54" y="228" width="136" height="38" rx="19" fill="url(#accent)"/>
  <text x="122" y="252" text-anchor="middle" fill="#fff" font-family="Inter,Arial,sans-serif" font-size="14" font-weight="800">JOIN EVENT</text>
  <rect x="346" y="70" width="198" height="202" rx="20" fill="#ffffff" opacity=".08" stroke="#ffffff" stroke-opacity=".2"/>
  <text x="445" y="126" text-anchor="middle" fill="#f7f8ff" font-family="Inter,Arial,sans-serif" font-size="26" font-weight="900">Hurry Up!</text>
  <g fill="#f7f8ff" font-family="Inter,Arial,sans-serif" text-anchor="middle" font-weight="900">
    <text x="389" y="186" font-size="34">15</text>
    <text x="445" y="186" font-size="34">07</text>
    <text x="501" y="186" font-size="34">58</text>
  </g>
  <g fill="#9ca7c6" font-family="Inter,Arial,sans-serif" text-anchor="middle" font-weight="800">
    <text x="389" y="214" font-size="11">DAYS</text>
    <text x="445" y="214" font-size="11">HRS</text>
    <text x="501" y="214" font-size="11">MIN</text>
  </g>
  <rect x="382" y="236" width="126" height="12" rx="6" fill="url(#accent)"/>
</svg>
